<?xml version="1.0" encoding="UTF-8"?>
<svg xmlns="http://www.w3.org/2000/svg" width="594" height="612" viewBox="0 0 594 612" fill="none">
  <g clip-path="url(#clip0_2_2)">
    <path d="M52.9348 525.469H143.066V534.688H52.9348V525.469Z" fill="#8787A0"></path>
    <path d="M93.3868 458.496H102.617V610.879H93.3868V458.496Z" fill="#A4ABCB"></path>
    <path d="M130.309 458.496L165.059 610.879H155.828L121.079 458.496H130.309Z" fill="#A4ABCB"></path>
    <path d="M65.6954 458.496L30.9459 610.879H40.1762L74.9258 458.496H65.6954Z" fill="#A4ABCB"></path>
    <path d="M39.9078 450.091V463.648H156.645V450.091C156.645 449.353 156.585 448.626 156.471 447.922C155.434 441.463 149.83 436.533 143.07 436.533H53.4818C46.722 436.533 41.1186 441.463 40.0815 447.922C39.9675 448.626 39.9078 449.353 39.9078 450.091Z" fill="url(#paint0_linear_2_2)"></path>
    <path d="M40.0797 447.922H156.469C155.432 441.463 149.829 436.533 143.069 436.533H53.48C46.7201 436.533 41.1168 441.463 40.0797 447.922Z" fill="url(#paint1_linear_2_2)"></path>
    <path d="M481.876 526.011H572.008V535.23H481.876V526.011Z" fill="#8787A0"></path>
    <path d="M522.328 459.038H531.559V611.422H522.328V459.038Z" fill="#A6A5BC"></path>
    <path d="M559.25 459.039L594 611.422H584.77L550.02 459.039H559.25Z" fill="#A6A5BC"></path>
    <path d="M494.637 459.038L459.887 611.422H469.118L503.867 459.038H494.637Z" fill="#A6A5BC"></path>
    <path d="M468.849 450.633V464.19H585.586V450.633C585.586 449.896 585.526 449.169 585.412 448.464C584.375 442.005 578.772 437.076 572.012 437.076H482.423C475.663 437.076 470.06 442.005 469.023 448.464C468.909 449.169 468.849 449.896 468.849 450.633Z" fill="url(#paint2_linear_2_2)"></path>
    <path d="M469.021 448.464H585.41C584.373 442.005 578.77 437.076 572.01 437.076H482.421C475.662 437.076 470.058 442.005 469.021 448.464Z" fill="url(#paint3_linear_2_2)"></path>
    <path d="M115.534 212.292C112.737 209.836 109.854 205.096 111.309 200.812C112.075 198.551 113.335 197.705 114.665 197.661C115.284 188.263 118.775 178.893 129.949 177.537C153.275 174.706 161.723 192.444 158.075 210.145C154.426 227.845 158.178 235.73 138.208 237.888L136.85 274.959L108.366 270.013L116.723 218.138C116.723 218.138 116.104 215.817 115.523 212.292H115.534Z" fill="#FCB9C0"></path>
    <path d="M119.272 213.854C121.042 212.872 120.771 206.652 120.233 202.102C120.005 200.177 116.144 196.544 113.37 198.003C111.969 188.54 112.642 177.813 122.378 176.208C125.793 168.79 132.743 171.073 136.723 172.217C149.07 175.769 152.963 176.17 158.322 173.556C162.264 171.631 165.744 172.765 166.168 175.335C166.933 179.961 164.262 182.233 164.262 182.233C168.85 183.903 168.779 187.081 168.432 189.044C167.525 194.142 164.381 196.056 160.374 196.208C159.712 199.293 158.61 202.233 158.631 203.209C158.631 203.209 158.566 199.765 157.6 196.061C147.967 194.814 135.561 186.36 135.561 186.36C136.75 190.671 128.263 192.01 125.071 192.357C123.898 197.677 121.889 210.871 127.737 221.104C127.737 221.104 147.463 211.517 156.356 220.806C156.356 220.806 159.918 238.88 137.586 237.72C137.586 237.72 131.087 236.532 127.476 232.286C127.476 232.286 121.547 226.164 117.388 213.599C118.153 213.979 118.827 214.103 119.261 213.859L119.272 213.854Z" fill="#484855"></path>
    <path d="M225.332 574.004V596.238H248.68L247.083 581.883L245.965 571.835L225.332 574.004Z" fill="#FCB9C0"></path>
    <path d="M248.136 590.815C248.136 590.815 236.191 603.288 225.332 588.104L221.531 611.422H278.217C280.66 611.422 281.512 608.185 279.389 606.981L248.136 590.815Z" fill="#955D9C"></path>
    <path d="M152.032 574.004V596.238H175.379L173.897 582.925L172.664 571.835L152.032 574.004Z" fill="#FCB9C0"></path>
    <path d="M174.836 590.815C174.836 590.815 162.891 603.287 152.031 588.103L148.231 611.422H204.916C207.359 611.422 208.212 608.184 206.089 606.98L174.836 590.815Z" fill="#955D9C"></path>
    <path d="M236.766 363.867L242.635 363.894L294.287 364.138H311.391L305.147 358.596L290.003 351.785C289.428 351.53 288.803 351.395 288.174 351.395H274.339C273.709 351.395 273.085 351.525 272.509 351.774L264.696 355.191L242.071 351.514L241.349 351.395L236.766 363.867Z" fill="#FCB9C0"></path>
    <path opacity="0.1" d="M225.327 574.004V587.024L247.078 581.883L245.96 571.835L225.327 574.004Z" fill="black"></path>
    <path opacity="0.1" d="M152.03 574.004V588.331L173.895 582.925L172.662 571.835L152.03 574.004Z" fill="black"></path>
    <path d="M249.493 581.325H213.657L204.97 460.937L100.178 416.469V385.559H157.189L244.416 429.587C252.772 433.806 257.822 442.581 257.263 451.913L249.498 581.325H249.493Z" fill="#15A879"></path>
    <path d="M179.182 581.867H143.346L140.632 464.733C140.632 464.733 94.4798 446.295 82.5347 434.907C82.5347 434.907 72.7614 426.23 82.5347 388.27H108.597L177.548 430.048C185.214 434.69 189.618 443.242 188.944 452.168L179.182 581.862V581.867Z" fill="#15A879"></path>
    <path d="M33.5294 354.854L62.7461 267.996C64.1904 263.706 67.3993 260.23 71.5638 258.446L111.58 241.31C111.58 241.31 121.625 287.155 124.611 300.804C126.843 311.021 133.548 361.188 133.548 361.188C133.548 361.188 138.039 307.247 138.815 297.399C139.803 284.828 139.51 245.48 139.51 245.48L177.327 260.534C181.286 262.112 184.435 265.225 186.058 269.162L210.942 329.703L256.008 346.514L251.936 366.579L190.31 357.36L176.193 329.703C176.193 329.703 175.72 351.302 174.944 358.444C173.478 372.001 175.65 388.27 175.65 388.27L246.778 430.569C246.778 430.569 235.956 431.453 227.774 430.026C218.853 428.47 214.2 436.534 214.2 436.534L139.814 400.743L154.729 416.426C158.53 420.417 161.875 424.82 164.698 429.555L177.278 450.633C177.278 450.633 153.687 460.66 146.873 467.986C142.491 472.699 139.418 479.234 137.268 486.012C132.473 501.082 132.213 517.335 132.213 517.335C132.213 517.335 77.4115 439.039 75.2017 418.096C74.1646 408.27 74.4361 389.816 75.1094 371.459C75.1582 370.271 75.2017 369.084 75.2505 367.896L39.578 364.236C35.0171 363.769 32.0688 359.198 33.5294 354.854ZM76.3365 344.93C77.1455 329.931 77.9165 318.857 77.9165 318.857L67.6002 343.802L76.3365 344.93Z" fill="white"></path>
    <path d="M134.925 373.086L107.294 245.833L107.837 244.536C107.837 244.536 114.304 258.967 128.41 259.753C138.183 260.295 140.051 247.557 140.051 247.557L139.508 261.928C139.508 261.928 139.736 290.599 139.084 300.159C138.319 311.482 134.925 373.097 134.925 373.097V373.086Z" fill="#955D9C"></path>
    <path d="M134.563 360.421L140.359 401.199L139.284 401.352L133.488 360.574L134.563 360.421Z" fill="#0C2F3D"></path>
    <path d="M134.49 367.083L153.467 277.334L145.252 273.473L155.66 271L155.546 270.48C155.53 270.404 153.868 262.747 150.828 257.009C147.928 251.532 143.102 247.064 142.895 246.874L142.162 247.671C142.211 247.714 147.06 252.204 149.872 257.514C152.392 262.269 153.944 268.392 154.373 270.187L141.988 273.131L152.234 277.947L134.289 362.821C131.998 355.608 124.006 330.571 120.639 321.379C116.784 310.858 104.285 280.566 102.521 276.304L113.364 271.743L99.1976 263.82C99.6863 262.188 101.576 256.076 103.606 252.411C105.958 248.17 112.354 242.302 112.419 242.243L111.686 241.44C111.42 241.684 105.094 247.487 102.656 251.885C100.251 256.228 98.1226 263.62 98.0303 263.929L97.9108 264.341L110.888 271.602L101.098 275.718L101.304 276.217C101.446 276.559 115.492 310.501 119.613 321.748C123.539 332.458 133.768 364.784 133.866 365.109L134.49 367.078V367.083Z" fill="#0C2F3D"></path>
    <path d="M130.377 261.293L135.47 257.573L144.7 268.419C144.7 268.419 146.595 249.189 138.184 244.016L130.04 259.2C130.04 259.2 115.38 254.319 112.122 241.304C112.122 241.304 105.607 255.946 115.033 268.419L123.525 258.88L130.377 261.293Z" fill="#955D9C"></path>
    <path d="M121.661 363.867L127.53 363.895L179.182 364.139H196.285L190.041 358.596L174.898 351.785C174.322 351.53 173.698 351.395 173.068 351.395H159.234C158.604 351.395 157.979 351.525 157.404 351.774L149.591 355.191L126.965 351.514L126.243 351.395L121.661 363.867Z" fill="#FCB9C0"></path>
    <path d="M126.174 350.847L126.305 349.768L67.8495 342.805L84.9311 303.89L83.932 303.456L66.264 343.71L126.174 350.847Z" fill="#0C2F3D"></path>
    <path d="M97.0011 337.186L104.043 335.104C107.203 334.171 109.093 330.928 108.338 327.718L102.719 303.792L100.634 304.28L106.253 328.206C106.747 330.31 105.509 332.441 103.435 333.054L96.393 335.137L97.0011 337.186Z" fill="#A0A0A0"></path>
    <path d="M84.7526 338.873L77.4118 338.775C74.116 338.732 71.4229 336.118 71.2763 332.827L70.2067 308.277L72.346 308.185L73.4156 332.734C73.5079 334.893 75.278 336.606 77.4444 336.639L84.7852 336.736L84.758 338.873H84.7526Z" fill="#A0A0A0"></path>
    <path d="M99.0432 335.462C99.331 336.519 98.7066 337.609 97.6479 337.897L95.8778 338.379C94.819 338.667 93.7277 338.043 93.4399 336.986C93.1521 335.928 93.7765 334.838 94.8353 334.551L96.6054 334.068C97.6641 333.781 98.7555 334.405 99.0432 335.462Z" fill="#123245"></path>
    <path d="M82.3192 337.767C82.33 338.862 83.2259 339.746 84.3227 339.735L86.1579 339.719C87.2547 339.708 88.1397 338.813 88.1289 337.718C88.118 336.623 87.2221 335.739 86.1253 335.749L84.2901 335.766C83.1933 335.777 82.3083 336.671 82.3192 337.767Z" fill="#123245"></path>
    <path d="M168.59 317.268C169.725 285.024 161.45 266.732 154.31 257.069C146.486 246.478 138.429 243.647 138.087 243.533L137.386 245.589L137.734 244.564L137.381 245.589C137.457 245.616 145.243 248.381 152.665 258.506C159.55 267.893 167.521 285.696 166.418 317.198L168.59 317.274V317.268Z" fill="#0C2F3D"></path>
    <path d="M167.296 324.275C163.812 324.275 160.987 321.454 160.987 317.974C160.987 314.493 163.812 311.672 167.296 311.672C170.781 311.672 173.606 314.493 173.606 317.974C173.606 321.454 170.781 324.275 167.296 324.275Z" fill="#A0A0A0"></path>
    <path d="M167.3 321.438C165.384 321.438 163.831 319.887 163.831 317.973C163.831 316.059 165.384 314.508 167.3 314.508C169.216 314.508 170.77 316.059 170.77 317.973C170.77 319.887 169.216 321.438 167.3 321.438Z" fill="#123245"></path>
    <path d="M133.297 349.778L134.383 349.757C134.367 349.095 132.955 283.218 130.962 260.464L129.882 260.556C131.869 283.272 133.281 349.117 133.297 349.778Z" fill="#0C2F3D"></path>
    <path d="M74.5031 292.301C76.8596 289.384 80.1228 287.502 83.7932 286.922C83.5217 266.445 90.868 255.1 97.2641 249.13C104.605 242.281 112.152 240.849 112.472 240.789L112.863 242.926C112.793 242.937 105.539 244.336 98.6595 250.8C90.1458 258.799 85.7859 271.174 85.9596 286.737C91.4272 286.662 96.1673 289.736 99.702 295.691C101.776 299.178 102.873 302.702 103.296 304.248C103.416 304.687 103.144 305.137 102.699 305.235L101.271 305.555C100.858 305.647 100.44 305.398 100.332 304.991C99.4576 301.851 95.4723 289.72 86.0519 289.791C86.0519 289.883 86.0519 289.975 86.0628 290.067L83.8964 290.176C83.8964 290.116 83.8963 290.062 83.8909 290.007C79.7481 290.81 72.9014 294.329 72.8091 308.825C72.8091 309.259 72.4562 309.611 72.0218 309.617L70.5612 309.633C70.116 309.633 69.7522 309.275 69.7576 308.83C69.801 301.726 71.3974 296.168 74.514 292.312L74.5031 292.301Z" fill="#0C2F3D"></path>
    <path d="M134.387 267.34C133.787 267.34 133.301 266.854 133.301 266.255C133.301 265.656 133.787 265.171 134.387 265.171C134.987 265.171 135.473 265.656 135.473 266.255C135.473 266.854 134.987 267.34 134.387 267.34Z" fill="#0C2F3D"></path>
    <path d="M134.926 281.439C134.326 281.439 133.84 280.954 133.84 280.355C133.84 279.756 134.326 279.27 134.926 279.27C135.526 279.27 136.012 279.756 136.012 280.355C136.012 280.954 135.526 281.439 134.926 281.439Z" fill="#0C2F3D"></path>
    <path d="M135.473 294.996C134.873 294.996 134.387 294.511 134.387 293.912C134.387 293.313 134.873 292.827 135.473 292.827C136.072 292.827 136.559 293.313 136.559 293.912C136.559 294.511 136.072 294.996 135.473 294.996Z" fill="#0C2F3D"></path>
    <path d="M175.656 314.529L176.742 314.536L176.562 340.929L175.476 340.922L175.656 314.529Z" fill="#0C2F3D"></path>
    <path opacity="0.1" d="M121.658 363.867L127.527 363.894L126.963 351.514L126.24 351.395L121.658 363.867Z" fill="black"></path>
    <path d="M361.883 375.526H379.258V611.693H361.883V375.526Z" fill="#A4ABCB"></path>
    <path d="M21.9924 374.984H39.3672V611.151H21.9924V374.984Z" fill="#A4ABCB"></path>
    <path d="M-0.000457764 363.596H409.664V380.949H-0.000457764V363.596Z" fill="#187CB9"></path>
    <path d="M264.293 298.25H268.734L239.702 363.867H168.596V358.282H232.606L258.668 301.846C259.678 299.655 261.877 298.25 264.293 298.25Z" fill="#133346"></path>
    <path d="M263.904 300.419L237.826 358.71C236.74 361.134 238.515 363.867 241.176 363.867H332.388C333.838 363.867 335.146 363.016 335.738 361.698L361.817 303.407C362.902 300.983 361.127 298.25 358.466 298.25H267.254C265.805 298.25 264.496 299.102 263.904 300.419Z" fill="#A6A5BC"></path>
    <path d="M299.685 328.792C298.143 331.72 298.604 334.99 300.711 336.096C302.818 337.203 305.777 335.728 307.319 332.799C308.861 329.871 308.399 326.601 306.293 325.495C304.186 324.388 301.227 325.864 299.685 328.792Z" fill="white"></path>
    <path d="M485.854 243.012C490.399 262.318 503.587 256.477 503.587 256.477V256.667L503.577 256.732L503.283 262.974V263.082L502.773 273.912L528.759 272.892L525.04 238.284C529.622 234.314 531.403 230.952 531.783 228.251C531.783 228.246 531.783 228.235 531.783 228.224C532.451 223.327 528.504 220.67 528.504 220.67L524.291 202.628L486.207 209.699C485.561 214.417 485.121 218.799 484.872 222.801C484.356 231.402 484.736 238.273 485.849 243.012H485.854Z" fill="#FFAAAD"></path>
    <path d="M520.093 197.818C520.093 197.818 505.906 184.391 494.172 192.422C494.172 192.422 485.366 203.382 475.848 199.711C475.848 199.711 475.837 205.562 479.502 207.031C479.502 207.031 474.371 210.681 469.973 209.211C469.973 209.211 475.066 232.633 497.066 218.034L496.328 223.154C496.328 223.154 510.977 224.64 513.198 211.473L518.687 227.373L522.092 226.012C522.092 226.012 522.379 223.75 524.931 222.335C527.483 220.919 531.653 220.952 531.642 228.88C531.642 228.88 540.248 196.023 520.099 197.818H520.093Z" fill="#484855"></path>
    <path d="M391.364 596.78H414.711V574.546L394.078 572.377L392.678 584.98L391.364 596.78Z" fill="#FFAAAD"></path>
    <path d="M391.907 591.357C391.907 591.357 403.852 603.829 414.711 588.645L418.512 611.964H361.827C359.383 611.964 358.531 608.726 360.654 607.522L391.907 591.357Z" fill="#FB7019"></path>
    <path d="M460.864 572.919L462.645 583.841L464.664 596.237H488.012L484.7 579.286L483.668 574.004L460.864 572.919Z" fill="#FFAAAD"></path>
    <path d="M464.118 590.814C464.118 590.814 476.063 603.287 486.922 588.103L490.723 611.421H434.037C431.594 611.421 430.742 608.184 432.865 606.98L464.118 590.814Z" fill="#FB7019"></path>
    <path opacity="0.1" d="M392.678 584.98L414.711 579.112V574.546L394.078 572.377L392.678 584.98Z" fill="black"></path>
    <path d="M398.835 276.385L403.423 283.879L418.626 295.809L448.532 357.923C450.454 361.914 455.971 362.354 458.501 358.726L486.214 319.014L490.297 313.163L464.778 300.148L460.89 308.239L458.881 312.414L451.747 327.262L431.657 292.013C431.657 292.013 431.114 281.71 427.313 277.372C423.513 273.033 422.427 267.61 422.427 267.61C422.427 267.61 416.997 270.864 420.798 277.372L408.31 271.406L400.453 263.56C399.839 262.947 398.802 263.229 398.58 264.058L397.592 267.757C397.157 269.395 397.95 274.937 398.835 276.385Z" fill="#FFAAAD"></path>
    <path d="M419.169 578.342H385.506L390.393 442.694C390.393 434.082 395.214 426.192 402.881 422.25L503.329 370.64H533.191L431.115 461.744L419.169 578.336V578.342Z" fill="#187CB9"></path>
    <path opacity="0.1" d="M458.881 312.414L486.214 319.014L490.297 313.163L464.778 300.148L460.89 308.239L458.881 312.414Z" fill="black"></path>
    <path opacity="0.1" d="M460.859 572.919L462.64 583.841L484.695 579.286L483.664 574.004L460.859 572.919Z" fill="black"></path>
    <path d="M485.678 578.613H451.471L422.325 458.778C420.251 450.248 423.569 441.316 430.708 436.203L514.998 375.797L553.277 370.645C553.277 370.645 564.782 438.366 535.902 445.481C494.094 455.785 469.661 463.377 469.661 463.377L485.678 578.613Z" fill="#187CB9"></path>
    <path d="M558.164 418.367C558.164 417.282 557.621 322.924 557.621 322.924L585.312 319.67L567.84 278.95C565.516 273.538 560.711 269.59 554.945 268.364L527.759 263.272C527.759 263.272 510.927 285.506 503.325 263.272L489.876 265.886C485.983 266.64 482.584 268.977 480.477 272.328L460.974 303.402L483.236 315.332L472.376 387.456L558.164 418.367Z" fill="#FB7019"></path>
    <path d="M467.508 414.896C467.497 416.1 468.637 416.989 469.804 416.691L488.667 410.775C488.667 410.775 501.155 414.028 506.042 409.148L579.798 364.756C584.771 361.763 587.421 356.047 586.492 350.326L581.573 320.05L581.513 319.67L555.994 322.924L557.091 330.451L559.795 348.954L507.671 391.795L486.484 395.238C485.067 395.471 483.742 396.079 482.645 396.995L469.175 408.302C468.132 409.175 467.529 410.466 467.519 411.821L467.508 414.896Z" fill="#FFAAAD"></path>
    <path d="M413.124 280.772L413.809 279.931L405.186 272.936L399.263 263.787L398.35 264.378L404.437 273.722L413.124 280.772Z" fill="#101310"></path>
    <path d="M410.909 285.614L411.68 284.85L401.955 275.143L397.65 267.61L396.705 268.147L401.135 275.853L410.909 285.614Z" fill="#101310"></path>
    <path d="M416.497 276.152L416.953 275.17L408.374 271.233L401.935 263.733L401.109 264.438L407.701 272.117L416.497 276.152Z" fill="#101310"></path>
    <path d="M422.839 281.802L423.648 281.076C419.044 275.962 420.157 271.634 420.206 271.45L419.158 271.157C419.098 271.363 417.812 276.217 422.839 281.797V281.802Z" fill="#101310"></path>
    <path d="M487.013 398.638L487.598 399.552L468.05 412.023L467.466 411.109L487.013 398.638Z" fill="#101310"></path>
    <path d="M489.212 402.453L489.758 403.391L468.038 416.001L467.492 415.063L489.212 402.453Z" fill="#101310"></path>
    <path d="M489.199 406.769L489.758 407.699L478.9 414.205L478.341 413.275L489.199 406.769Z" fill="#101310"></path>
    <path d="M485.14 295.456L486.215 295.608L477.197 359.054L476.121 358.902L485.14 295.456Z" fill="#101310"></path>
    <path d="M423.6 461.644L445.898 553.42L444.843 553.676L422.545 461.9L423.6 461.644Z" fill="white"></path>
    <path d="M546.469 298.12L552.988 322.521L551.939 322.8L545.42 298.4L546.469 298.12Z" fill="#101310"></path>
    <path opacity="0.1" d="M503.277 263.082C513.632 258.229 516.086 244.563 516.086 244.563C513.567 249.916 507.502 254.292 503.582 256.667V256.732L503.283 262.974V263.082H503.277Z" fill="black"></path>
    <path opacity="0.1" d="M555.991 322.924L557.088 330.451L581.57 320.05L581.511 319.67L555.991 322.924Z" fill="black"></path>
  </g>
  <g style="mix-blend-mode:hard-light">
    <path d="M204.386 0H548.896C559.834 0 568.716 8.89749 568.716 19.8552V123.026C568.716 133.984 559.834 142.882 548.896 142.882H204.386C193.448 142.882 184.566 133.984 184.566 123.026V19.8552C184.566 8.89749 193.448 0 204.386 0Z" fill="#F5F5F5"></path>
  </g>
  <path d="M535.96 41.0177H489.012V45.7361H535.96V41.0177Z" fill="#B8D6FF"></path>
  <path d="M542.972 55.6239H489.012V60.3423H542.972V55.6239Z" fill="#B8D6FF"></path>
  <path d="M516.844 70.1512H488.926V74.8696H516.844V70.1512Z" fill="#B8D6FF"></path>
  <path d="M531.939 84.6786H488.926V89.3969H531.939V84.6786Z" fill="#B8D6FF"></path>
  <path d="M276.541 129.755H234.695V134.919H276.541V129.755Z" fill="#D6D6D6"></path>
  <path d="M286.692 120.556H224.543V125.719H286.692V120.556Z" fill="#D6D6D6"></path>
  <path d="M266.38 51.4061C267.336 45.506 263.336 39.9466 257.447 38.9889C251.557 38.0311 246.008 42.0377 245.051 47.9379C244.095 53.838 248.095 59.3974 253.985 60.3551C259.874 61.3128 265.424 57.3062 266.38 51.4061Z" fill="#187CB9"></path>
  <path d="M275.203 84.9509V105.536C269.235 108.256 262.6 109.768 255.617 109.768C248.634 109.768 241.999 108.256 236.031 105.536V84.9509C236.031 74.1191 244.796 65.3301 255.617 65.3301C266.439 65.3301 275.203 74.1191 275.203 84.9509Z" fill="#187CB9"></path>
  <path d="M423.876 33.6586H323.234V40.1588H423.876V33.6586Z" fill="white"></path>
  <path d="M370.492 18.8589H323.234V25.3562H370.492V18.8589Z" fill="white"></path>
  <path d="M255.616 111.052C248.598 111.052 241.829 109.589 235.501 106.705C218.153 98.8072 206.945 81.3727 206.945 62.2911C206.945 35.4052 228.781 13.5308 255.619 13.5308C282.458 13.5308 304.293 35.4052 304.293 62.2911C304.293 81.3727 293.083 98.8072 275.735 106.705C269.407 109.589 262.638 111.052 255.619 111.052H255.616ZM255.616 16.1068C230.194 16.1068 209.514 36.8266 209.514 62.2911C209.514 80.3675 220.133 96.8788 236.563 104.361C242.557 107.092 248.967 108.475 255.616 108.475C262.266 108.475 268.676 107.092 274.67 104.361C291.102 96.8788 301.722 80.3645 301.722 62.2911C301.722 36.8237 281.039 16.1068 255.619 16.1068H255.616Z" fill="url(#paint4_linear_2_2)"></path>
  <path d="M332.951 52.4736H330.383V114.897H332.951V52.4736Z" fill="#C9E0FF"></path>
  <path d="M344.76 52.4736H342.191V114.897H344.76V52.4736Z" fill="#C9E0FF"></path>
  <path d="M356.565 52.4736H353.996V114.897H356.565V52.4736Z" fill="#C9E0FF"></path>
  <path d="M368.373 52.4736H365.805V114.897H368.373V52.4736Z" fill="#C9E0FF"></path>
  <path d="M380.178 52.4736H377.609V114.897H380.178V52.4736Z" fill="#C9E0FF"></path>
  <path d="M391.99 52.4736H389.422V114.897H391.99V52.4736Z" fill="#C9E0FF"></path>
  <path d="M403.795 52.4736H401.227V114.897H403.795V52.4736Z" fill="#C9E0FF"></path>
  <path d="M415.604 52.4736H413.035V114.897H415.604V52.4736Z" fill="#C9E0FF"></path>
  <path d="M427.408 52.4736H424.84V114.897H427.408V52.4736Z" fill="#C9E0FF"></path>
  <path d="M439.217 52.4736H436.648V114.897H439.217V52.4736Z" fill="#C9E0FF"></path>
  <path d="M451.026 52.4736H448.457V114.897H451.026V52.4736Z" fill="#C9E0FF"></path>
  <path d="M462.83 52.4736H460.262V114.897H462.83V52.4736Z" fill="#C9E0FF"></path>
  <path d="M332.951 71.136H330.383V114.897H332.951V71.136Z" fill="#FF6559"></path>
  <path d="M344.76 86.2582H342.191V114.894H344.76V86.2582Z" fill="#FF6559"></path>
  <path d="M356.565 61.4824H353.996V114.897H356.565V61.4824Z" fill="#FF6559"></path>
  <path d="M368.373 99.3436H365.805V114.897H368.373V99.3436Z" fill="#FF6559"></path>
  <path d="M380.178 83.6852H377.609V114.897H380.178V83.6852Z" fill="#FF6559"></path>
  <path d="M391.99 71.9917H389.422V114.894H391.99V71.9917Z" fill="#FF6559"></path>
  <path d="M403.795 87.2225H401.227V114.894H403.795V87.2225Z" fill="#FF6559"></path>
  <path d="M415.604 68.0236H413.035V114.894H415.604V68.0236Z" fill="#FF6559"></path>
  <path d="M427.408 89.1538H424.84V114.894H427.408V89.1538Z" fill="#FF6559"></path>
  <path d="M439.217 73.7091H436.648V114.894H439.217V73.7091Z" fill="#FF6559"></path>
  <path d="M451.026 94.3027H448.457V114.897H451.026V94.3027Z" fill="#FF6559"></path>
  <path d="M462.83 73.7091H460.262V114.894H462.83V73.7091Z" fill="#FF6559"></path>
  <defs>
    <linearGradient id="paint0_linear_2_2" x1="156.645" y1="450.091" x2="39.9078" y2="450.091" gradientUnits="userSpaceOnUse">
      <stop stop-color="#2B233C"></stop>
      <stop offset="1" stop-color="#635C70"></stop>
    </linearGradient>
    <linearGradient id="paint1_linear_2_2" x1="46.1391" y1="441.089" x2="143.867" y2="443.535" gradientUnits="userSpaceOnUse">
      <stop stop-color="#2B233C"></stop>
      <stop offset="1" stop-color="#635C70"></stop>
    </linearGradient>
    <linearGradient id="paint2_linear_2_2" x1="454.672" y1="451.279" x2="588.241" y2="450.191" gradientUnits="userSpaceOnUse">
      <stop stop-color="#2B233C"></stop>
      <stop offset="1" stop-color="#635C70"></stop>
    </linearGradient>
    <linearGradient id="paint3_linear_2_2" x1="585.41" y1="442.77" x2="469.021" y2="442.77" gradientUnits="userSpaceOnUse">
      <stop stop-color="#2B233C"></stop>
      <stop offset="1" stop-color="#635C70"></stop>
    </linearGradient>
    <linearGradient id="paint4_linear_2_2" x1="255.616" y1="28.6618" x2="255.616" y2="130.118" gradientUnits="userSpaceOnUse">
      <stop stop-color="#D3DAE0"></stop>
      <stop offset="1" stop-color="white"></stop>
    </linearGradient>
    <clipPath id="clip0_2_2">
      <rect width="594" height="441" fill="white" transform="matrix(-1 0 0 1 594 170.964)"></rect>
    </clipPath>
  </defs>
</svg>
